<svg width="67" height="19" viewBox="0 0 67 19" fill="none" xmlns="http://www.w3.org/2000/svg">
<path fill-rule="evenodd" clip-rule="evenodd" d="M9.12228 10.0115V6.96191L0.697721 10.0955H0.68042V13.2241H0.697721L9.12228 16.3577V13.3032L4.80497 11.6524L9.12228 10.0115Z" fill="#996DFF"/>
<path fill-rule="evenodd" clip-rule="evenodd" d="M57.9205 16.1995V13.15L62.2353 11.5091L57.9205 9.86814V6.81859L66.3327 9.9497H66.3525V13.0808H66.3327L57.9205 16.1971V16.1995ZM54.3075 2.51117L49.36 18.3916H52.2983L57.2458 2.51117H54.3075Z" fill="#996DFF"/>
<path fill-rule="evenodd" clip-rule="evenodd" d="M21.5013 6.386C22.3366 7.30532 22.7765 8.51624 22.7246 9.75682V16.5207H19.7862V10.3771C19.8208 9.69257 19.6009 9.02038 19.1734 8.48658C18.7656 8.0121 18.1626 7.75015 17.5374 7.77733C15.6988 7.77733 14.777 9.05251 14.777 11.6053V16.5232H11.8386V5.41727H14.777V6.4206C15.7086 5.51365 16.9739 5.03175 18.2738 5.08612C19.4847 5.03422 20.6611 5.5087 21.4988 6.386H21.5013Z" fill="white"/>
<path fill-rule="evenodd" clip-rule="evenodd" d="M26.4635 0.798584V16.679H29.4018V0.798584H26.4635Z" fill="white"/>
<path fill-rule="evenodd" clip-rule="evenodd" d="M46.0034 16.0981H43.5519L41.1499 9.55665L38.7256 16.0981H36.279L32.1619 4.97244H35.3004L37.6135 11.6251L39.9983 4.97244H42.2891L44.6739 11.6473L46.987 4.97244H50.1255L46.0034 16.0981Z" fill="white"/>
</svg>
